<svg width="199" height="55" viewBox="0 0 199 55" fill="none" xmlns="http://www.w3.org/2000/svg">
<path d="M88.1524 9.93098V12.4616H92.2334V14.814H88.1524V17.5585H92.7681V20H85.1049V7.48947H92.7681V9.93098H88.1524ZM102.534 17.7902H97.8652L97.1167 20H93.9267L98.4533 7.48947H101.982L106.509 20H103.283L102.534 17.7902ZM101.75 15.4378L100.2 10.8577L98.6672 15.4378H101.75ZM112.413 20.1247C111.498 20.1247 110.678 19.9762 109.953 19.6792C109.229 19.3822 108.647 18.9426 108.207 18.3604C107.779 17.7783 107.554 17.0773 107.53 16.2575H110.773C110.821 16.7209 110.981 17.0773 111.254 17.3268C111.528 17.5644 111.884 17.6832 112.324 17.6832C112.775 17.6832 113.132 17.5822 113.393 17.3803C113.654 17.1664 113.785 16.8753 113.785 16.507C113.785 16.1981 113.678 15.9427 113.464 15.7407C113.262 15.5387 113.007 15.3724 112.698 15.2417C112.401 15.111 111.973 14.9625 111.415 14.7962C110.607 14.5467 109.948 14.2972 109.437 14.0477C108.926 13.7982 108.486 13.4299 108.118 12.9428C107.75 12.4557 107.565 11.82 107.565 11.0359C107.565 9.87158 107.987 8.9627 108.831 8.30925C109.674 7.64392 110.773 7.31126 112.128 7.31126C113.506 7.31126 114.617 7.64392 115.46 8.30925C116.304 8.9627 116.755 9.87752 116.815 11.0537H113.518C113.494 10.6498 113.345 10.3349 113.072 10.1092C112.799 9.87158 112.448 9.75277 112.021 9.75277C111.652 9.75277 111.355 9.85376 111.13 10.0557C110.904 10.2458 110.791 10.525 110.791 10.8933C110.791 11.2973 110.981 11.6121 111.361 11.8379C111.742 12.0636 112.336 12.3072 113.143 12.5685C113.951 12.8418 114.605 13.1032 115.104 13.3527C115.615 13.6022 116.054 13.9645 116.423 14.4398C116.791 14.915 116.975 15.5269 116.975 16.2754C116.975 16.9882 116.791 17.6357 116.423 18.2179C116.066 18.8 115.543 19.2634 114.854 19.6079C114.165 19.9525 113.351 20.1247 112.413 20.1247ZM129.579 7.48947L125.248 15.8655V20H122.201V15.8655L117.87 7.48947H121.328L123.751 12.7289L126.157 7.48947H129.579ZM148.751 7.48947V20H145.704V12.4972L142.906 20H140.446L137.631 12.4794V20H134.583V7.48947H138.183L141.694 16.1506L145.169 7.48947H148.751ZM156.859 20.1247C155.683 20.1247 154.602 19.8515 153.616 19.305C152.642 18.7585 151.863 17.9981 151.281 17.0238C150.711 16.0377 150.426 14.9328 150.426 13.7091C150.426 12.4854 150.711 11.3864 151.281 10.4122C151.863 9.43793 152.642 8.67756 153.616 8.13104C154.602 7.58452 155.683 7.31126 156.859 7.31126C158.036 7.31126 159.111 7.58452 160.085 8.13104C161.071 8.67756 161.843 9.43793 162.402 10.4122C162.972 11.3864 163.257 12.4854 163.257 13.7091C163.257 14.9328 162.972 16.0377 162.402 17.0238C161.831 17.9981 161.059 18.7585 160.085 19.305C159.111 19.8515 158.036 20.1247 156.859 20.1247ZM156.859 17.3446C157.857 17.3446 158.653 17.012 159.247 16.3466C159.853 15.6813 160.156 14.8021 160.156 13.7091C160.156 12.6042 159.853 11.725 159.247 11.0715C158.653 10.4062 157.857 10.0736 156.859 10.0736C155.849 10.0736 155.042 10.4003 154.436 11.0537C153.842 11.7072 153.545 12.5923 153.545 13.7091C153.545 14.814 153.842 15.6991 154.436 16.3645C155.042 17.0179 155.849 17.3446 156.859 17.3446ZM176.144 20H173.097L168 12.2834V20H164.953V7.48947H168L173.097 15.2417V7.48947H176.144V20ZM181.401 9.93098V12.4616H185.482V14.814H181.401V17.5585H186.016V20H178.353V7.48947H186.016V9.93098H181.401ZM198.723 7.48947L194.393 15.8655V20H191.345V15.8655L187.015 7.48947H190.472L192.896 12.7289L195.302 7.48947H198.723Z" fill="#24C26D"/>
<path d="M87.381 32.019V41.4491C87.381 42.935 87.731 44.0352 88.4312 44.7496C89.1456 45.464 90.1172 45.8212 91.3459 45.8212C92.5747 45.8212 93.532 45.4712 94.2178 44.7711C94.918 44.0567 95.268 42.9493 95.268 41.4491V32.019H96.7683V41.4277C96.7683 43.328 96.261 44.7568 95.2466 45.7141C94.2464 46.6714 92.9391 47.15 91.3245 47.15C89.7099 47.15 88.3954 46.6714 87.381 45.7141C86.3808 44.7568 85.8807 43.328 85.8807 41.4277V32.019H87.381ZM111.409 47H109.909L101.615 34.3979V47H100.115V32.019H101.615L109.909 44.5996V32.019H111.409V47ZM116.307 32.019V47H114.807V32.019H116.307ZM131.578 32.019L125.899 47H124.184L118.505 32.019H120.133L125.041 45.3712L129.992 32.019H131.578ZM135.333 33.2406V38.8344H141.012V40.0774H135.333V45.7569H141.655V47H133.832V31.9975H141.655V33.2406H135.333ZM152.584 47L148.876 40.7418H146.112V47H144.611V32.019H149.112C150.784 32.019 152.048 32.419 152.905 33.2192C153.777 34.0193 154.213 35.0695 154.213 36.3697C154.213 37.4556 153.899 38.3843 153.27 39.1558C152.655 39.9131 151.741 40.4061 150.527 40.6347L154.384 47H152.584ZM146.112 39.5202H149.133C150.305 39.5202 151.184 39.2344 151.77 38.6629C152.37 38.0914 152.67 37.327 152.67 36.3697C152.67 35.3838 152.384 34.6265 151.812 34.0979C151.241 33.5549 150.341 33.2834 149.112 33.2834H146.112V39.5202ZM161.734 47.15C160.748 47.15 159.876 46.9786 159.119 46.6357C158.376 46.2927 157.79 45.8141 157.362 45.1997C156.933 44.5853 156.704 43.8995 156.676 43.1422H158.262C158.333 43.8709 158.655 44.5139 159.226 45.0711C159.798 45.6141 160.633 45.8855 161.734 45.8855C162.748 45.8855 163.548 45.6283 164.134 45.114C164.734 44.5853 165.034 43.9209 165.034 43.1208C165.034 42.4778 164.87 41.9635 164.541 41.5777C164.213 41.1776 163.805 40.8847 163.32 40.699C162.834 40.4989 162.162 40.2846 161.305 40.056C160.305 39.7845 159.512 39.5202 158.926 39.263C158.34 39.0058 157.84 38.6058 157.426 38.0628C157.011 37.5199 156.804 36.784 156.804 35.8553C156.804 35.0837 157.004 34.3979 157.404 33.7978C157.804 33.1834 158.369 32.7048 159.098 32.3619C159.826 32.019 160.662 31.8475 161.605 31.8475C162.991 31.8475 164.106 32.1904 164.948 32.8762C165.806 33.5478 166.299 34.4193 166.427 35.491H164.798C164.698 34.8766 164.363 34.3336 163.791 33.8621C163.22 33.3763 162.448 33.1334 161.476 33.1334C160.576 33.1334 159.826 33.3763 159.226 33.8621C158.626 34.3336 158.326 34.9837 158.326 35.8124C158.326 36.4411 158.49 36.9483 158.819 37.3341C159.148 37.7199 159.555 38.0128 160.041 38.2128C160.541 38.4129 161.212 38.6272 162.055 38.8558C163.027 39.1273 163.813 39.3987 164.413 39.6702C165.013 39.9274 165.52 40.3275 165.934 40.8704C166.349 41.4134 166.556 42.1421 166.556 43.0565C166.556 43.7566 166.37 44.421 165.999 45.0497C165.627 45.6784 165.077 46.1856 164.348 46.5714C163.62 46.9571 162.748 47.15 161.734 47.15ZM170.955 32.019V47H169.455V32.019H170.955ZM183.118 32.019V33.262H178.96V47H177.46V33.262H173.281V32.019H183.118ZM195.389 32.019L190.588 41.1705V47H189.088V41.1705L184.244 32.019H185.937L189.838 39.7988L193.717 32.019H195.389Z" fill="white"/>
<path d="M54.9995 41.46H49.5116V23.6665L40.7311 32.5934L24.5725 17.1523H10.4261L3.71875 11H26.1579L40.7311 24.9332L54.9995 11V41.46Z" fill="#24C26D"/>
<path d="M22.683 22.8828H11.1586L3.96343 29.397H23.5977V34.5843H6.52442L0 41.3398H41.4636L22.683 22.8828Z" fill="#24C26D"/>
</svg>
